<svg xmlns="http://www.w3.org/2000/svg" xmlns:xlink="http://www.w3.org/1999/xlink" width="19" height="16" viewBox="0 0 20 20">
  <metadata><?xpacket begin="﻿" id="W5M0MpCehiHzreSzNTczkc9d"?>
<x:xmpmeta xmlns:x="adobe:ns:meta/" x:xmptk="Adobe XMP Core 5.6-c142 79.160924, 2017/07/13-01:06:39        ">
   <rdf:RDF xmlns:rdf="http://www.w3.org/1999/02/22-rdf-syntax-ns#">
      <rdf:Description rdf:about=""/>
   </rdf:RDF>
</x:xmpmeta>
                                                                                                    
                                                                                                    
                                                                                                    
                                                                                                    
                                                                                                    
                                                                                                    
                                                                                                    
                                                                                                    
                                                                                                    
                                                                                                    
                                                                                                    
                                                                                                    
                                                                                                    
                                                                                                    
                                                                                                    
                                                                                                    
                                                                                                    
                                                                                                    
                                                                                                    
                                                                                                    
                           
<?xpacket end="w"?></metadata>
<defs>
    <style>
      .cls-1 {
        filter: url(#filter);
      }

      .cls-2 {
        fill: #fff;
        fill-rule: evenodd;
      }
    </style>
    <filter id="filter" filterUnits="userSpaceOnUse">
      <feFlood result="flood" flood-color="#969696"/>
      <feComposite result="composite" operator="in" in2="SourceGraphic"/>
      <feBlend result="blend" in2="SourceGraphic"/>
    </filter>
  </defs>
  <g id="Группа_5" data-name="Группа 5" class="cls-1">
    <g id="Группа_2" data-name="Группа 2">
      <path id="Forma_1" data-name="Forma 1" class="cls-2" d="M10.432,9.81V9.377a0.932,0.932,0,1,0-1.864,0V9.81A0.932,0.932,0,1,0,10.432,9.81Zm0.639,0.529a1.627,1.627,0,0,1-3.142,0H1.511A2.569,2.569,0,0,1,.38,10.075v4.374A1.538,1.538,0,0,0,1.893,16H17.107a1.538,1.538,0,0,0,1.513-1.553V10.075a2.57,2.57,0,0,1-1.131.264H11.071Zm6.355-7.854H13.794A2.9,2.9,0,0,0,10.954,0H8.045a2.905,2.905,0,0,0-2.84,2.488H1.574A1.569,1.569,0,0,0,0,4.038V7.622A1.533,1.533,0,0,0,1.511,9.175H7.857a1.706,1.706,0,0,1,.5-1.139c0.009-.009.02-0.016,0.029-0.024A1.677,1.677,0,0,1,8.6,7.842c0.026-.018.057-0.031,0.084-0.047a1.61,1.61,0,0,1,.188-0.1,1.643,1.643,0,0,1,.162-0.052c0.047-.014.092-0.033,0.14-0.043A1.59,1.59,0,0,1,9.5,7.564a1.615,1.615,0,0,1,.326.034c0.048,0.01.093,0.029,0.14,0.043a1.536,1.536,0,0,1,.162.052,1.613,1.613,0,0,1,.187.1c0.028,0.017.058,0.029,0.085,0.047a1.637,1.637,0,0,1,.208.17c0.009,0.009.02,0.016,0.03,0.025a1.7,1.7,0,0,1,.5,1.139h6.347A1.533,1.533,0,0,0,19,7.623V4.039A1.569,1.569,0,0,0,17.426,2.485Zm-10.764,0A1.465,1.465,0,0,1,8.045,1.451h2.91a1.465,1.465,0,0,1,1.383,1.034H6.662Z"/>
    </g>
  </g>
</svg>
