<svg xmlns="http://www.w3.org/2000/svg" xmlns:xlink="http://www.w3.org/1999/xlink" width="20" height="20" viewBox="0 0 20 20">
  <metadata><?xpacket begin="﻿" id="W5M0MpCehiHzreSzNTczkc9d"?>
<x:xmpmeta xmlns:x="adobe:ns:meta/" x:xmptk="Adobe XMP Core 5.6-c142 79.160924, 2017/07/13-01:06:39        ">
   <rdf:RDF xmlns:rdf="http://www.w3.org/1999/02/22-rdf-syntax-ns#">
      <rdf:Description rdf:about=""/>
   </rdf:RDF>
</x:xmpmeta>
                                                                                                    
                                                                                                    
                                                                                                    
                                                                                                    
                                                                                                    
                                                                                                    
                                                                                                    
                                                                                                    
                                                                                                    
                                                                                                    
                                                                                                    
                                                                                                    
                                                                                                    
                                                                                                    
                                                                                                    
                                                                                                    
                                                                                                    
                                                                                                    
                                                                                                    
                                                                                                    
                           
<?xpacket end="w"?></metadata>
<defs>
    <style>
      .cls-1 {
        filter: url(#filter);
      }

      .cls-2 {
        fill: #fff;
        fill-rule: evenodd;
      }
    </style>
    <filter id="filter" filterUnits="userSpaceOnUse">
      <feFlood result="flood" flood-color="#969696"/>
      <feComposite result="composite" operator="in" in2="SourceGraphic"/>
      <feBlend result="blend" in2="SourceGraphic"/>
    </filter>
  </defs>
  <g id="Группа_5" data-name="Группа 5" class="cls-1">
    <g id="Группа_4" data-name="Группа 4">
      <path id="Forma_1" data-name="Forma 1" class="cls-2" d="M12.611,5.6A1.065,1.065,0,1,1,11.56,6.661,1.058,1.058,0,0,1,12.611,5.6ZM19.522,5.6h-1.2a6.092,6.092,0,0,0-.358-0.876l0.848-.859a0.489,0.489,0,0,0,0-.685L16.858,1.2a0.473,0.473,0,0,0-.676,0l-0.848.859A5.938,5.938,0,0,0,14.471,1.7V0.484A0.481,0.481,0,0,0,13.993,0H11.228a0.481,0.481,0,0,0-.478.484V1.7a5.928,5.928,0,0,0-.864.363L9.039,1.2a0.474,0.474,0,0,0-.676,0L6.408,3.183a0.489,0.489,0,0,0,0,.685L7.256,4.727A6.122,6.122,0,0,0,6.9,5.6H5.7a0.481,0.481,0,0,0-.478.484v2.8a0.481,0.481,0,0,0,.478.484H6.9a6.1,6.1,0,0,0,.359.875l-0.848.859a0.489,0.489,0,0,0,0,.685l1.955,1.981a0.473,0.473,0,0,0,.676,0l0.848-.859a5.94,5.94,0,0,0,.864.363v1.214a0.481,0.481,0,0,0,.478.484h2.764a0.481,0.481,0,0,0,.478-0.484V13.277a5.928,5.928,0,0,0,.864-0.363l0.848,0.859a0.473,0.473,0,0,0,.676,0l1.955-1.981a0.489,0.489,0,0,0,0-.685l-0.848-.859a6.1,6.1,0,0,0,.358-0.875h1.2A0.481,0.481,0,0,0,20,8.888v-2.8A0.481,0.481,0,0,0,19.522,5.6Zm-6.911,5.206a3.322,3.322,0,1,1,3.278-3.321A3.3,3.3,0,0,1,12.611,10.809ZM7.542,14.736H7.1q-0.031-.082-0.066-0.162l0.316-.321a0.489,0.489,0,0,0,0-.685l-1-1.012a0.474,0.474,0,0,0-.676,0l-0.317.321c-0.053-.024-0.106-0.046-0.16-0.067V12.357a0.481,0.481,0,0,0-.478-0.484H3.3a0.481,0.481,0,0,0-.478.484V12.81c-0.054.021-.107,0.043-0.16,0.067L2.35,12.557a0.474,0.474,0,0,0-.676,0l-1,1.012a0.489,0.489,0,0,0,0,.685l0.317,0.321q-0.035.08-.066,0.162H0.478A0.481,0.481,0,0,0,0,15.22v1.432a0.481,0.481,0,0,0,.478.484H0.925Q0.956,17.218.991,17.3l-0.316.321a0.489,0.489,0,0,0,0,.685l1,1.012a0.473,0.473,0,0,0,.676,0L2.666,19c0.053,0.024.106,0.046,0.16,0.067v0.453A0.481,0.481,0,0,0,3.3,20H4.717a0.481,0.481,0,0,0,.478-0.484V19.062q0.081-.032.16-0.067l0.317,0.321a0.473,0.473,0,0,0,.676,0l1-1.012a0.489,0.489,0,0,0,0-.685L7.029,17.3q0.035-.08.066-0.162H7.543a0.481,0.481,0,0,0,.478-0.484V15.22A0.481,0.481,0,0,0,7.542,14.736ZM4.01,17.6a1.66,1.66,0,1,1,1.638-1.66A1.651,1.651,0,0,1,4.01,17.6Zm9.779-9.28-0.314-.1-0.864.416-0.864-.416-0.314.1a0.888,0.888,0,0,0-.6.764,2.366,2.366,0,0,0,3.549,0A0.887,0.887,0,0,0,13.789,8.316Z"/>
    </g>
  </g>
</svg>
